<svg width="7456" height="570" viewBox="0 0 7456 570" fill="none" xmlns="http://www.w3.org/2000/svg">
<path d="M282.92 -1.00136e-05C313.763 -1.00136e-05 344.012 3.55873 373.668 10.6762C403.917 17.7937 432.684 28.4699 459.968 42.7049C487.251 56.3468 511.273 74.7336 532.032 97.8655C553.385 120.997 564.951 148.578 566.73 180.606V217.973V501.783C563.171 537.37 543.598 556.647 508.011 559.613C491.403 559.613 476.872 554.274 464.416 543.598C452.554 532.329 446.622 518.39 446.622 501.783V208.187C445.436 189.8 438.319 174.675 425.27 162.813C412.814 150.357 398.579 140.57 382.565 133.453C367.144 126.335 350.833 120.997 333.632 117.439C317.025 113.88 300.121 112.1 282.92 112.1C265.72 112.1 248.519 113.88 231.318 117.439C214.711 120.997 198.4 126.335 182.386 133.453C166.964 140.57 152.729 150.357 139.681 162.813C127.225 174.675 120.404 189.8 119.218 208.187V501.783C116.252 537.37 96.9758 556.647 61.3883 559.613C44.7808 559.613 30.2493 554.274 17.7937 543.598C5.93121 532.329 -3.05176e-05 518.39 -3.05176e-05 501.783V217.973V180.606C1.77934 148.578 13.0487 120.997 33.808 97.8655C54.5674 74.7336 78.5889 56.3468 105.873 42.7049C133.156 28.4699 161.626 17.7937 191.282 10.6762C221.532 3.55873 252.078 -1.00136e-05 282.92 -1.00136e-05ZM962.64 569.399C931.798 569.399 901.252 565.84 871.003 558.723C841.346 551.605 812.877 541.226 785.593 527.584C758.309 513.349 734.288 494.665 713.528 471.534C692.769 448.402 681.5 420.822 679.72 388.793V351.426V67.6161C679.72 51.0087 685.651 37.3668 697.514 26.6906C709.97 15.4212 724.501 9.78654 741.109 9.78654C776.696 12.7522 795.973 32.0287 798.938 67.6161V361.213C800.124 379.599 806.945 395.021 819.401 407.476C832.45 419.339 846.685 428.829 862.106 435.946C878.12 443.064 894.431 448.402 911.039 451.961C928.239 455.519 945.44 457.299 962.64 457.299C979.841 457.299 996.745 455.519 1013.35 451.961C1030.55 448.402 1046.86 443.064 1062.29 435.946C1078.3 428.829 1092.53 419.339 1104.99 407.476C1118.04 395.021 1125.16 379.599 1126.34 361.213V67.6161C1126.34 51.0087 1132.27 37.3668 1144.14 26.6906C1156.59 15.4212 1171.12 9.78654 1187.73 9.78654C1223.32 12.7522 1242.89 32.0287 1246.45 67.6161V351.426V388.793C1244.67 420.822 1233.1 448.402 1211.75 471.534C1190.99 494.665 1166.97 513.349 1139.69 527.584C1112.4 541.226 1083.64 551.605 1053.39 558.723C1023.73 565.84 993.483 569.399 962.64 569.399ZM1347.87 83.6305C1347.87 67.023 1353.51 53.0846 1364.78 41.8152C1376.64 29.9528 1390.88 24.0215 1407.48 24.0215H1925.28C1941.89 24.0215 1956.12 29.6562 1967.99 40.9256C1979.26 52.788 1984.89 67.023 1984.89 83.6305C1984.89 100.238 1978.96 114.473 1967.1 126.335C1955.83 137.605 1941.89 143.239 1925.28 143.239H1726.88V503.562C1723.32 539.15 1703.75 558.426 1668.16 561.392C1651.55 561.392 1637.02 556.054 1624.57 545.378C1612.7 534.108 1606.77 520.17 1606.77 503.562V143.239H1407.48C1390.88 143.239 1376.94 137.308 1365.67 125.446C1353.81 114.176 1347.87 100.238 1347.87 83.6305ZM2198.41 503.562C2194.86 539.15 2175.28 558.426 2139.7 561.392C2123.09 561.392 2108.56 556.054 2096.1 545.378C2084.24 534.108 2078.31 520.17 2078.31 503.562V81.8511C2078.9 65.2436 2085.13 51.6018 2096.99 40.9256C2108.85 29.6562 2123.09 24.0215 2139.7 24.0215H2183.29H2292.72H2512.47C2516.03 24.0215 2519.59 24.3181 2523.15 24.9112H2528.49C2570.01 26.0974 2604.11 35.5874 2630.8 53.3812C2657.49 71.1749 2676.77 91.6377 2688.63 114.769C2700.49 137.308 2706.43 160.143 2706.43 183.275C2706.43 207 2700.49 230.429 2688.63 253.561C2677.36 276.099 2658.09 296.265 2630.8 314.059C2604.11 331.853 2570.01 341.343 2528.49 342.529H2371.9C2376.65 372.185 2386.43 394.131 2401.26 408.366C2415.5 422.601 2433.59 429.718 2455.53 429.718H2647.71C2664.31 430.312 2677.96 436.539 2688.63 448.402C2699.9 460.264 2705.54 474.499 2705.54 491.107C2704.94 507.121 2699.01 520.763 2687.74 532.032C2677.07 542.709 2663.72 548.343 2647.71 548.936H2439.52C2395.63 549.529 2355.89 532.329 2320.3 497.335C2284.71 462.34 2263.06 420.822 2255.35 372.778C2244.68 319.397 2239.34 289.445 2239.34 282.92C2239.34 266.313 2244.97 252.374 2256.24 241.105C2268.11 229.242 2282.34 223.311 2298.95 223.311H2533.83C2545.1 222.718 2554.29 220.346 2561.41 216.194C2569.12 211.449 2574.75 206.407 2578.31 201.069C2581.87 195.138 2583.65 189.207 2583.65 183.275C2583.65 177.344 2581.87 171.709 2578.31 166.371C2574.75 160.44 2569.12 155.398 2561.41 151.247C2554.29 146.502 2545.1 143.833 2533.83 143.239H2292.72H2221.55C2206.13 143.833 2198.41 151.543 2198.41 166.371V503.562ZM2783.83 489.327C2783.83 472.72 2789.46 458.781 2800.73 447.512C2812.59 435.65 2826.83 429.718 2843.44 429.718H3014.26V143.239H2843.44C2826.83 143.239 2812.89 137.308 2801.62 125.446C2789.76 114.176 2783.83 100.238 2783.83 83.6305C2783.83 67.023 2789.46 53.0846 2800.73 41.8152C2812.59 29.9528 2826.83 24.0215 2843.44 24.0215H3304.29C3320.9 24.0215 3335.14 29.6562 3347 40.9256C3358.27 52.788 3363.9 67.023 3363.9 83.6305C3363.9 100.238 3357.97 114.473 3346.11 126.335C3334.84 137.605 3320.9 143.239 3304.29 143.239H3134.36V429.718H3304.29C3320.9 429.718 3335.14 435.353 3347 446.622C3358.27 458.485 3363.9 472.72 3363.9 489.327C3363.9 505.935 3357.97 520.17 3346.11 532.032C3334.84 543.302 3320.9 548.936 3304.29 548.936H2843.44C2826.83 548.936 2812.89 543.005 2801.62 531.143C2789.76 519.873 2783.83 505.935 2783.83 489.327ZM4031.17 83.6305C4031.17 100.238 4025.24 114.176 4013.37 125.446C4002.1 137.308 3988.17 143.239 3971.56 143.239H3615.68C3604.42 143.833 3594.93 146.502 3587.21 151.247C3580.1 155.398 3574.76 160.44 3571.2 166.371C3567.64 171.709 3565.86 177.344 3565.86 183.275C3565.86 189.207 3567.64 195.138 3571.2 201.069C3574.76 206.407 3580.1 211.449 3587.21 216.194C3594.93 220.346 3604.42 222.718 3615.68 223.311H3868.36C3909.87 224.497 3943.98 234.284 3970.67 252.671C3997.95 270.465 4017.23 291.224 4028.5 314.949C4040.36 338.081 4046.29 361.806 4046.29 386.124C4046.29 409.849 4040.36 433.574 4028.5 457.299C4016.64 480.43 3997.36 501.19 3970.67 519.577C3943.98 537.37 3909.87 546.267 3868.36 546.267H3863.02C3859.46 546.86 3855.9 547.157 3852.34 547.157H3516.04C3499.43 547.157 3485.2 541.522 3473.33 530.253C3462.07 518.39 3456.43 504.155 3456.43 487.548C3456.43 470.941 3462.36 457.002 3474.22 445.733C3485.49 433.87 3499.43 427.939 3516.04 427.939H3873.69C3884.96 428.532 3894.16 426.456 3901.27 421.711C3908.98 416.966 3914.62 411.628 3918.18 405.697C3921.74 399.172 3923.52 392.648 3923.52 386.124C3923.52 381.972 3921.74 376.337 3918.18 369.22C3914.62 361.509 3908.98 355.281 3901.27 350.536C3894.16 345.791 3884.96 343.122 3873.69 342.529H3621.02C3579.5 341.343 3545.1 331.853 3517.82 314.059C3491.13 296.265 3471.85 276.099 3459.99 253.561C3448.72 230.429 3443.09 207 3443.09 183.275C3443.09 160.143 3449.02 137.308 3460.88 114.769C3472.74 91.6377 3492.02 71.1749 3518.71 53.3812C3545.4 35.5874 3579.5 26.0974 3621.02 24.9112H3626.36C3629.92 24.3181 3633.48 24.0215 3637.04 24.0215H3971.56C3988.17 24.0215 4002.1 29.9528 4013.37 41.8152C4025.24 53.0846 4031.17 67.023 4031.17 83.6305ZM4266.05 501.783C4262.49 537.37 4242.91 556.647 4207.33 559.613C4190.72 559.613 4176.19 554.274 4163.73 543.598C4151.87 532.329 4145.94 518.39 4145.94 501.783V81.8511C4146.53 65.2436 4152.76 51.6018 4164.62 40.9256C4176.48 29.6562 4190.72 24.0215 4207.33 24.0215H4580.99C4633.19 25.8009 4672.63 37.3668 4699.32 58.7193C4726.01 79.4786 4745.29 103.204 4757.15 129.894C4769.01 156.585 4774.95 183.572 4774.95 210.856C4774.95 239.326 4769.01 266.906 4757.15 293.596C4745.88 320.287 4726.61 344.309 4699.32 365.661C4672.63 386.42 4638.53 396.503 4597.01 395.91H4372.81C4356.2 395.91 4342.26 389.979 4330.99 378.117C4319.13 366.847 4313.2 352.909 4313.2 336.301C4313.2 319.694 4318.83 305.755 4330.1 294.486C4341.96 282.624 4356.2 276.692 4372.81 276.692H4602.35C4613.62 276.692 4622.81 273.134 4629.93 266.016C4637.64 258.306 4643.27 249.705 4646.83 240.215C4650.39 230.132 4652.17 220.049 4652.17 209.966C4652.17 200.476 4650.39 190.986 4646.83 181.496C4643.27 171.413 4637.64 162.813 4629.93 155.695C4622.81 147.984 4613.62 143.833 4602.35 143.239H4289.18C4273.76 143.833 4266.05 151.543 4266.05 166.371V501.783ZM4930.64 9.78654C4946.65 10.3797 4960.3 16.3109 4971.57 27.5803C4982.84 38.2565 4988.77 51.6018 4989.36 67.6161V216.194H5278.51V67.6161C5279.1 51.0087 5285.33 37.3668 5297.19 26.6906C5309.05 15.4212 5323.29 9.78654 5339.9 9.78654C5355.91 10.3797 5369.55 16.3109 5380.82 27.5803C5392.09 38.2565 5398.02 51.6018 5398.62 67.6161V503.562C5395.06 539.15 5375.48 558.426 5339.9 561.392C5323.29 561.392 5308.76 556.054 5296.3 545.378C5284.44 534.108 5278.51 520.17 5278.51 503.562V335.412H4989.36V503.562C4985.8 539.15 4966.23 558.426 4930.64 561.392C4914.03 561.392 4899.5 556.054 4887.05 545.378C4875.18 534.108 4869.25 520.17 4869.25 503.562V67.6161C4869.85 51.0087 4876.07 37.3668 4887.94 26.6906C4899.8 15.4212 4914.03 9.78654 4930.64 9.78654ZM5674.42 24.0215H5715.34H6017.84C6034.44 24.6146 6048.09 30.8424 6058.76 42.7049C6070.03 54.5674 6075.67 68.8024 6075.67 85.4099C6072.7 120.997 6053.42 140.274 6017.84 143.239H5704.67C5682.13 144.426 5663.45 153.026 5648.62 169.04C5633.79 185.055 5622.82 203.442 5615.7 224.201C5609.17 244.367 5605.91 265.126 5605.91 286.479C5605.91 307.831 5609.17 328.887 5615.7 349.647C5622.82 369.813 5633.79 387.903 5648.62 403.917C5663.45 419.932 5682.13 428.532 5704.67 429.718H6017.84C6034.44 430.312 6048.09 436.539 6058.76 448.402C6070.03 460.264 6075.67 474.499 6075.67 491.107C6075.07 507.121 6069.14 520.763 6057.87 532.032C6047.2 542.709 6033.85 548.343 6017.84 548.936H5691.32H5674.42C5632.9 546.564 5598.5 530.846 5571.21 501.783C5544.52 472.127 5525.25 438.615 5513.38 401.248C5502.12 363.882 5496.48 325.625 5496.48 286.479C5496.48 247.333 5502.41 209.076 5514.27 171.709C5526.14 134.343 5545.41 101.128 5572.1 72.0646C5598.79 42.4084 5632.9 26.394 5674.42 24.0215ZM6073.89 282.92C6073.89 299.528 6067.96 313.466 6056.09 324.735C6044.82 336.598 6030.89 342.529 6014.28 342.529H5745.59C5728.99 342.529 5714.75 336.894 5702.89 325.625C5691.62 313.763 5685.98 299.528 5685.98 282.92C5685.98 266.313 5691.62 252.078 5702.89 240.215C5714.75 228.946 5728.99 223.311 5745.59 223.311H6014.28C6030.89 223.311 6044.82 229.242 6056.09 241.105C6067.96 252.374 6073.89 266.313 6073.89 282.92ZM6284.74 503.562C6281.18 539.15 6261.61 558.426 6226.02 561.392C6209.42 561.392 6194.88 556.054 6182.43 545.378C6170.57 534.108 6164.64 520.17 6164.64 503.562V81.8511C6165.23 65.2436 6171.46 51.6018 6183.32 40.9256C6195.18 29.6562 6209.42 24.0215 6226.02 24.0215H6269.62H6379.05H6598.8C6602.36 24.0215 6605.92 24.3181 6609.48 24.9112H6614.82C6656.34 26.0974 6690.44 35.5874 6717.13 53.3812C6743.82 71.1749 6763.1 91.6377 6774.96 114.769C6786.82 137.308 6792.75 160.143 6792.75 183.275C6792.75 207 6786.82 230.429 6774.96 253.561C6763.69 276.099 6744.41 296.265 6717.13 314.059C6690.44 331.853 6656.34 341.343 6614.82 342.529H6458.23C6462.98 372.185 6472.76 394.131 6487.59 408.366C6501.83 422.601 6519.92 429.718 6541.86 429.718H6734.03C6750.64 430.312 6764.28 436.539 6774.96 448.402C6786.23 460.264 6791.86 474.499 6791.86 491.107C6791.27 507.121 6785.34 520.763 6774.07 532.032C6763.39 542.709 6750.05 548.343 6734.03 548.936H6525.85C6481.96 549.529 6442.22 532.329 6406.63 497.335C6371.04 462.34 6349.39 420.822 6341.68 372.778C6331.01 319.397 6325.67 289.445 6325.67 282.92C6325.67 266.313 6331.3 252.374 6342.57 241.105C6354.43 229.242 6368.67 223.311 6385.28 223.311H6620.15C6631.42 222.718 6640.62 220.346 6647.73 216.194C6655.45 211.449 6661.08 206.407 6664.64 201.069C6668.2 195.138 6669.98 189.207 6669.98 183.275C6669.98 177.344 6668.2 171.709 6664.64 166.371C6661.08 160.44 6655.45 155.398 6647.73 151.247C6640.62 146.502 6631.42 143.833 6620.15 143.239H6379.05H6307.87C6292.45 143.833 6284.74 151.543 6284.74 166.371V503.562ZM7054.32 24.0215H7095.25H7397.74C7414.35 24.6146 7427.99 30.8424 7438.67 42.7049C7449.94 54.5674 7455.57 68.8024 7455.57 85.4099C7452.6 120.997 7433.33 140.274 7397.74 143.239H7084.57C7062.03 144.426 7043.35 153.026 7028.52 169.04C7013.69 185.055 7002.72 203.442 6995.6 224.201C6989.08 244.367 6985.82 265.126 6985.82 286.479C6985.82 307.831 6989.08 328.887 6995.6 349.647C7002.72 369.813 7013.69 387.903 7028.52 403.917C7043.35 419.932 7062.03 428.532 7084.57 429.718H7397.74C7414.35 430.312 7427.99 436.539 7438.67 448.402C7449.94 460.264 7455.57 474.499 7455.57 491.107C7454.98 507.121 7449.05 520.763 7437.78 532.032C7427.1 542.709 7413.75 548.343 7397.74 548.936H7071.23H7054.32C7012.8 546.564 6978.4 530.846 6951.12 501.783C6924.43 472.127 6905.15 438.615 6893.29 401.248C6882.02 363.882 6876.38 325.625 6876.38 286.479C6876.38 247.333 6882.32 209.076 6894.18 171.709C6906.04 134.343 6925.32 101.128 6952.01 72.0646C6978.7 42.4084 7012.8 26.394 7054.32 24.0215ZM7453.79 282.92C7453.79 299.528 7447.86 313.466 7436 324.735C7424.73 336.598 7410.79 342.529 7394.18 342.529H7125.5C7108.89 342.529 7094.65 336.894 7082.79 325.625C7071.52 313.763 7065.89 299.528 7065.89 282.92C7065.89 266.313 7071.52 252.078 7082.79 240.215C7094.65 228.946 7108.89 223.311 7125.5 223.311H7394.18C7410.79 223.311 7424.73 229.242 7436 241.105C7447.86 252.374 7453.79 266.313 7453.79 282.92Z" fill="#00FF84"/>
</svg>
